<svg width="17" height="21" viewBox="0 0 17 21" fill="none" xmlns="http://www.w3.org/2000/svg">
<path d="M8.50037 8.05404C8.23515 8.05404 7.9808 8.15939 7.79326 8.34693C7.60573 8.53447 7.50037 8.78882 7.50037 9.05404V11.054C7.50037 11.3193 7.60573 11.5736 7.79326 11.7611C7.9808 11.9487 8.23515 12.054 8.50037 12.054C8.76559 12.054 9.01994 11.9487 9.20748 11.7611C9.39501 11.5736 9.50037 11.3193 9.50037 11.054V9.05404C9.50037 8.78882 9.39501 8.53447 9.20748 8.34693C9.01994 8.15939 8.76559 8.05404 8.50037 8.05404ZM16.9604 7.73404C16.8278 6.26865 16.3171 4.86277 15.4782 3.65394C14.6393 2.44512 13.501 1.47476 12.1747 0.837783C10.8483 0.20081 9.37934 -0.0809545 7.91143 0.0200553C6.44352 0.121065 5.02697 0.60139 3.80037 1.41404C2.74957 2.11668 1.86742 3.04334 1.21731 4.12743C0.567203 5.21152 0.165264 6.42614 0.0403693 7.68404C-0.0821483 8.93369 0.0750432 10.195 0.50054 11.3763C0.926036 12.5577 1.60917 13.6295 2.50037 14.514L7.80037 19.824C7.89333 19.9178 8.00393 19.9922 8.12579 20.0429C8.24765 20.0937 8.37836 20.1198 8.51037 20.1198C8.64238 20.1198 8.77309 20.0937 8.89495 20.0429C9.01681 19.9922 9.12741 19.9178 9.22037 19.824L14.5004 14.514C15.3916 13.6295 16.0747 12.5577 16.5002 11.3763C16.9257 10.195 17.0829 8.93369 16.9604 7.68404V7.73404ZM13.1004 13.104L8.50037 17.704L3.90037 13.104C3.22246 12.4261 2.70317 11.6064 2.37984 10.7038C2.0565 9.80123 1.93715 8.83823 2.03037 7.88404C2.12419 6.91514 2.43213 5.9792 2.93194 5.14388C3.43175 4.30856 4.11093 3.59474 4.92037 3.05404C5.98131 2.34927 7.22668 1.97333 8.50037 1.97333C9.77406 1.97333 11.0194 2.34927 12.0804 3.05404C12.8874 3.59265 13.565 4.30332 14.0647 5.13498C14.5644 5.96663 14.8737 6.89864 14.9704 7.86404C15.0666 8.82146 14.9488 9.78831 14.6254 10.6946C14.3019 11.6009 13.781 12.4239 13.1004 13.104ZM9.42037 5.62404C9.4004 5.5626 9.36995 5.50509 9.33037 5.45404L9.21037 5.30404C9.09098 5.19068 8.94546 5.10855 8.78671 5.06494C8.62797 5.02133 8.46091 5.01758 8.30037 5.05404H8.12037L7.94037 5.14404L7.79037 5.27404L7.67037 5.42404C7.63079 5.47509 7.60034 5.5326 7.58037 5.59404C7.54992 5.65358 7.52964 5.7178 7.52037 5.78404C7.50379 5.87303 7.49708 5.96358 7.50037 6.05404C7.49689 6.18844 7.52426 6.32186 7.58037 6.44404C7.63131 6.56206 7.70237 6.67034 7.79037 6.76404C7.88555 6.85748 7.99751 6.93212 8.12037 6.98404C8.36517 7.07704 8.63557 7.07704 8.88037 6.98404C9.0019 6.92968 9.11345 6.85531 9.21037 6.76404C9.29837 6.67034 9.36943 6.56206 9.42037 6.44404C9.47291 6.32071 9.50011 6.18809 9.50037 6.05404C9.50527 5.9908 9.50527 5.92728 9.50037 5.86404C9.49106 5.77926 9.46379 5.69744 9.42037 5.62404Z" fill="white"/>
</svg>
